<svg xmlns="http://www.w3.org/2000/svg" viewBox="0 0 640 640" role="img" aria-label="Lunatech Agency"><g fill="#ffffff"><path d="M0 320v320h640V0H0zm176.8-.3-.3 85.8-4.4.3c-10.3.8-28.7-4.9-41-12.5-19.1-11.9-33.2-31.4-38.7-53.3-2.5-10-2.5-30.7 0-40 4.6-17.2 12.6-31 25-42.8 9.4-8.9 20.1-15.2 32.5-19.1 11.2-3.5 12.6-3.8 20.9-4l6.2-.1zM520 296.6v10.5l2.6-2c5.3-4.2 14.6-4.6 19-1 4.1 3.4 4.9 6.9 4.9 22.9v15.5h-9l-.5-14.8c-.4-13.2-.7-15-2.4-16.3-2.9-2.1-8.8-1.8-11.4.6-2.9 2.7-3.2 4.3-3.5 18.5l-.2 12h-9l-.3-28.3-.2-28.2h10zM215 310v21h24v5.5c0 3.7-.4 5.5-1.2 5.6h-18.3l-17 .1-.3-26.6-.2-26.6h13zm193-13v5h9v9h-9v31h-8.9l-.3-15.3-.3-15.2-3.7-.3c-3.8-.3-3.8-.4-3.8-4.8V302h8v-10h9zm-79.5 6.4c4.6 3 5.3 6 5.6 23.1l.3 16-4.9-.2c-2.8 0-5.6-.1-6.2-.2-1-.1-1.3-3.6-1.3-13.9 0-15.3-.3-16.2-5.9-16.2-6.4 0-7.1 1.6-7.1 16.6 0 14.9.3 14.4-8 14l-4.5-.2-.3-20.2-.2-20.2h6c5.4 0 6 .2 6 2.1 0 2.1.1 2.1 2.7.4 5.7-3.8 13-4.2 17.8-1.1m40.4.5c3.1 2.2 3.1 2.2 3.1.2 0-1.9.6-2.1 6-2.1h6v40l-3.7.1c-2.1 0-4.8.2-6 .5-1.8.3-2.3-.1-2.3-1.6 0-2.4.3-2.4-4.5 0-9.8 5-21 .2-24.5-10.6-2-6.1-.8-16.7 2.5-21.3 5.4-7.9 16.2-10.3 23.4-5.2m83.8.7c5.1 2.9 8.3 9 8.3 15.7v4.7h-14.5c-15.5 0-16.1.2-12.9 4.9 1.9 2.7 7.1 5.1 11.1 5.1 1.6 0 4.6-.9 6.7-2.1 4.1-2.2 4.1-2.2 6.8 2.5 2 3.7-6 7.6-15.7 7.6-10.4 0-18.9-7.5-20.1-17.5-2.1-18 14.9-29.7 30.3-20.9m43.6-.9c1.5.8 3.7 2.3 4.8 3.4l2.1 2.1-2.8 2.9-2.7 2.8-2.9-2c-8.8-6.3-19.3-1-19.1 9.6.1 5.3 1.6 8.1 5.6 10.5 4.2 2.6 7.3 2.5 12.5-.5l4.3-2.5 2.4 2.8 2.4 2.7-2.1 2.2c-5.7 6.1-19.5 7.1-26.2 1.9-9.7-7.3-11-22.1-3-31.5 5.7-6.6 16.5-8.6 24.7-4.4M259 315.5c0 12.2.2 13.7 2 15.5 2.4 2.4 6.7 2.6 9.5.4 1.8-1.3 2-2.9 2.3-15.4l.4-14H285v20c0 15.3-.3 20-1.2 20.1-8.7.9-10.8.5-10.8-2.1 0-1.8-.3-1.7-3.7.6-3.2 2.2-4.6 2.5-9.5 2.2C249 342 247 338 247 317v-15h12zm-45.8 51.6c1.4.8 2.3.8 3.1 0 .6-.6 1.9-1.1 2.9-1.1 1.6 0 1.8 1.1 1.8 10.5V387h-2.5c-1.4 0-2.5-.5-2.5-1 0-.7-.6-.7-1.9 0-2.5 1.3-5.4 1.3-8.4-.1-6.6-3-6.2-16.2.7-18.9 2.9-1.2 4.4-1.2 6.8.1m46 0c1.5.8 2.2.8 2.8-.1.4-.7 1.6-1 2.6-.8 1.7.3 1.9 1.4 2.2 9.3.4 10.5-.9 15.9-4.3 18.1-4.4 2.9-14.9 1.9-14.3-1.4.3-1.4 1.3-1.6 5.4-1.4 3.7.3 5.5-.1 6.7-1.3 2.3-2.3 2.3-5 0-4-4.9 2.2-8.2 1.8-11.3-1.3-2.4-2.5-3-3.9-3-7.4 0-8.1 6.8-13.1 13.2-9.7m49.6 2.4c1.2 1.4 2.2 3.9 2.2 5.6v2.9h-7c-5.6 0-7 .3-7 1.5 0 2.3 4.9 3.9 8.2 2.7 1.8-.7 3-.6 3.7.1 1.6 1.6 1.4 2.3-1.4 3.5-7.6 3.5-15.6-.9-15.7-8.5 0-4.8 2.2-8.9 5.5-10.3 3.6-1.5 9-.3 11.5 2.5m31.9-2.4c.8.8 1.7.8 3.1 0 3.1-1.6 6-1.3 8.2.9 1.7 1.7 2 3.3 2 10.5 0 8.4 0 8.5-2.5 8.5-2.4 0-2.5-.2-2.5-7.4 0-7.9-1.2-10.2-4.6-8.9-2.9 1-3.4 2.3-3.4 9.5 0 6.6-.1 6.8-2.5 6.8-2.5 0-2.5 0-2.5-9.8 0-5.4.3-10.2.7-10.5 1-1 2.8-.8 4 .4m53.3.4c3.2 1.7 3.6 2.5 1.9 4.2-.8.8-1.8.7-3.6-.2-4.3-2.2-8.3.1-8.3 4.8 0 5.6 5.2 8.6 9 5.2 1.5-1.4 1.9-1.4 3.1.1 1.2 1.4 1 1.9-1 3.5-6 4.9-16.1-.1-16.1-7.9.1-8.9 7.5-13.6 15-9.7m30.4.7c.8 1.2 2.3 4.3 3.3 7 .9 2.6 1.9 4.8 2.3 4.8.3 0 1.6-3 2.9-6.6 2.3-6.5 3.8-8.1 6.5-7.1 1.4.6.2 4-9.1 25.9-1.5 3.6-2.2 3.9-6.1 2.9-.1-.1.4-1.4 1.3-3.1 2.2-4.2 1.9-5.8-2.5-15.4-2.2-4.7-4-9.1-4-9.6 0-1.9 3.9-1 5.4 1.2"/><path d="M356 315.2c-3.1 5.1-2.7 11.3.9 14.9 5.4 5.4 13.5 2.5 14.8-5.3 1.2-8.1-2.1-12.8-9.2-12.8-4 0-4.7.4-6.5 3.2m79.1-2.6c-5.4 4.5-4.3 5.4 6.9 5.4 6.5 0 10-.4 10-1.1 0-.6-1.3-2.4-2.9-4-3.9-3.9-9.6-4-14-.3m-228 59.8c-.7.8-1.1 3.2-.9 5.3.2 3.1.8 3.9 3 4.7s3.2.6 4.8-.9c2.2-2 2.7-7.4.8-9.3-1.6-1.6-6.3-1.5-7.7.2m47.1-1.3c-2.9 1.1-4.2 4.6-3 8.2 1.7 4.8 8.8 4.5 10.3-.4 1.6-5.1-2.5-9.5-7.3-7.8m44.6 0c-3.1 1.7-2 2.9 2.7 2.9s5.8-1.2 2.6-3c-2.4-1.2-3.1-1.2-5.3.1"/></g></svg>