<svg width="700" height="250" viewBox="0 0 700 250" fill="none" xmlns="http://www.w3.org/2000/svg" role="img" aria-labelledby="logoTitle">
<title id="logoTitle">Lunatech agency</title>
<path d="M124.52 249.04C55.7496 249.04 0 193.291 0 124.52C0 55.7496 55.7496 0 124.52 0V249.04Z" fill="white"/>
<path d="M699.842 138.598V172.024H684.036V138.857C684.036 135.532 683.345 132.509 681.963 129.788C680.625 127.024 678.789 124.822 676.457 123.181C674.168 121.54 671.62 120.719 668.813 120.719C665.617 120.719 662.961 121.54 660.845 123.181C658.729 124.822 657.153 127.024 656.116 129.788C655.08 132.509 654.562 135.532 654.562 138.857V172.024H638.626V74.8555H654.432V113.399C656.03 110.247 658.189 108.152 660.91 107.116C663.631 106.079 666.783 105.561 670.368 105.561C676.328 105.561 681.488 107.072 685.85 110.095C690.255 113.075 693.667 117.07 696.085 122.08C698.504 127.089 699.756 132.595 699.842 138.598Z" fill="white"/>
<path d="M614.263 152.526L628.514 160.235C625.534 164.294 621.799 167.555 617.307 170.017C612.816 172.478 607.914 173.709 602.603 173.709C596.643 173.709 591.201 172.176 586.278 169.11C581.398 166.043 577.49 161.941 574.553 156.802C571.66 151.619 570.213 145.897 570.213 139.635C570.213 134.885 571.055 130.458 572.739 126.355C574.424 122.209 576.734 118.582 579.671 115.472C582.65 112.32 586.105 109.858 590.035 108.088C593.965 106.317 598.154 105.432 602.603 105.432C607.914 105.432 612.816 106.662 617.307 109.124C621.799 111.586 625.534 114.889 628.514 119.035L614.263 126.679C612.751 124.952 610.959 123.613 608.886 122.663C606.856 121.713 604.762 121.238 602.603 121.238C599.493 121.238 596.686 122.102 594.181 123.829C591.676 125.513 589.69 127.759 588.222 130.566C586.753 133.33 586.019 136.353 586.019 139.635C586.019 142.874 586.753 145.897 588.222 148.704C589.69 151.468 591.676 153.692 594.181 155.376C596.686 157.061 599.493 157.903 602.603 157.903C604.848 157.903 606.986 157.428 609.016 156.478C611.045 155.484 612.794 154.167 614.263 152.526Z" fill="white"/>
<path d="M531.371 173.709C525.411 173.709 519.97 172.176 515.047 169.11C510.167 166.043 506.258 161.919 503.322 156.737C500.428 151.554 498.981 145.832 498.981 139.57C498.981 134.863 499.824 130.458 501.508 126.355C503.192 122.209 505.503 118.582 508.439 115.472C511.419 112.32 514.874 109.858 518.804 108.088C522.734 106.317 526.923 105.432 531.371 105.432C536.424 105.432 541.045 106.511 545.234 108.671C549.466 110.787 553.051 113.702 555.987 117.416C558.924 121.13 561.062 125.362 562.4 130.113C563.739 134.863 564.041 139.829 563.307 145.012H515.954C516.558 147.43 517.552 149.611 518.933 151.554C520.315 153.455 522.064 154.988 524.181 156.154C526.297 157.277 528.694 157.86 531.371 157.903C534.135 157.946 536.64 157.298 538.886 155.959C541.174 154.578 543.075 152.721 544.586 150.388L560.716 154.146C558.082 159.889 554.152 164.597 548.926 168.268C543.701 171.895 537.849 173.709 531.371 173.709ZM515.435 133.157H547.307C546.832 130.566 545.817 128.234 544.262 126.161C542.751 124.045 540.872 122.361 538.626 121.108C536.381 119.856 533.962 119.23 531.371 119.23C528.78 119.23 526.383 119.856 524.181 121.108C521.978 122.317 520.099 123.98 518.545 126.096C517.033 128.169 515.997 130.523 515.435 133.157Z" fill="white"/>
<path d="M493.053 123.051H480.486V172.024H464.68V123.051H455.093V107.245H464.68V86.9043H480.486V107.245H493.053V123.051Z" fill="white"/>
<path d="M426.979 107.245H442.786V172.025H426.915L426.267 163.992C424.453 166.886 422.078 169.239 419.141 171.053C416.248 172.824 412.836 173.709 408.906 173.709C404.112 173.709 399.621 172.802 395.432 170.988C391.243 169.174 387.55 166.67 384.355 163.474C381.159 160.278 378.676 156.586 376.905 152.397C375.134 148.208 374.249 143.716 374.249 138.923C374.249 134.302 375.091 129.961 376.775 125.902C378.46 121.842 380.835 118.28 383.901 115.213C386.967 112.147 390.509 109.75 394.525 108.023C398.541 106.295 402.86 105.432 407.481 105.432C411.799 105.432 415.643 106.382 419.012 108.282C422.423 110.182 425.317 112.601 427.692 115.537L426.979 107.245ZM409.359 158.486C412.814 158.486 415.816 157.601 418.364 155.83C420.912 154.059 422.833 151.706 424.129 148.769C425.468 145.789 426.008 142.507 425.749 138.923C425.446 135.554 424.453 132.509 422.769 129.789C421.084 127.025 418.925 124.822 416.291 123.181C413.656 121.54 410.698 120.72 407.416 120.72C404.004 120.72 400.938 121.605 398.217 123.375C395.54 125.146 393.467 127.521 391.999 130.501C390.53 133.438 389.947 136.72 390.249 140.348C390.595 143.673 391.675 146.718 393.488 149.482C395.302 152.202 397.591 154.383 400.355 156.024C403.162 157.665 406.164 158.486 409.359 158.486Z" fill="white"/>
<path d="M365.395 138.534V172.025H349.589V138.793C349.589 135.468 348.898 132.445 347.516 129.724C346.134 126.96 344.212 124.757 341.75 123.116C339.332 121.475 336.525 120.655 333.329 120.655C330.22 120.655 327.521 121.475 325.232 123.116C322.943 124.757 321.172 126.96 319.92 129.724C318.711 132.445 318.106 135.468 318.106 138.793V172.025H302.3V107.245H318.106V114.889C320.265 111.996 322.835 109.707 325.815 108.023C328.838 106.295 332.249 105.432 336.05 105.432C342.01 105.432 347.17 106.943 351.532 109.966C355.937 112.946 359.327 116.941 361.702 121.95C364.121 126.96 365.352 132.488 365.395 138.534Z" fill="white"/>
<path d="M224.898 140.605V107.244H240.705V140.346C240.705 143.672 241.396 146.716 242.778 149.48C244.159 152.244 246.081 154.447 248.543 156.088C251.004 157.686 253.812 158.485 256.964 158.485C260.117 158.485 262.816 157.686 265.062 156.088C267.35 154.447 269.1 152.244 270.309 149.48C271.561 146.716 272.187 143.672 272.187 140.346V107.244H287.993V172.023H272.187V164.315C270.071 167.165 267.502 169.475 264.479 171.246C261.499 172.974 258.109 173.837 254.308 173.837C248.305 173.837 243.123 172.347 238.761 169.367C234.399 166.344 231.009 162.328 228.591 157.319C226.172 152.266 224.942 146.695 224.898 140.605Z" fill="white"/>
<path d="M162.523 172.023V81.332H178.33V156.217H216.096V172.023H162.523Z" fill="white"/>
</svg>
